<svg version="1.2" xmlns="http://www.w3.org/2000/svg" viewBox="0 0 1000 1000" width="1000" height="1000"><defs><linearGradient id="P" gradientUnits="userSpaceOnUse"/><radialGradient id="g1" cx="522.7" cy="465.1" r="289.3" href="#P"><stop stop-color="#5248ad" stop-opacity=".6"/><stop offset="1" stop-color="#5248ad"/></radialGradient></defs><style>.a{fill:#fff;stroke:#000}.b{fill:url(#g1)}</style><path class="a" d="m500 1000c-276.4 0-499.9-223.5-499.9-500.1 0-276.5 223.5-500 499.9-500 276.4 0 499.9 223.5 499.9 500 0 276.6-223.5 500.1-499.9 500.1z"/><path class="b" d="m319.9 66.4c-1.5-0.7-2.8 0-2.8 1.4 0 1.3 27.8 98.9 61.5 216.7 33.9 117.7 61.4 215.5 61.4 217.2 0 2.4-75 213.9-117.4 331.2-0.6 1.5-25.4-2.5-73.7-12.1-39.8-7.8-73.3-13.5-73.9-12.9-0.9 0.9-2.4 4.5-3.6 8.3l-2.4 6.8 11.1 4c55.5 20.8 293.4 106.5 295.3 106.5 1.2 0 3.2-3.8 4.4-8.3l2.1-8.4-61.4-34.6c-33.9-19.1-61.9-35.7-62.3-36.7-0.8-1.9 116.3-331.5 118.2-333.2 0.5-0.2 12.5-8.2 27.2-17.6l26.2-16.9-12.5 1c-15 1.3-23.9-1.7-36-12.3-31.8-28-13.1-76.8 29.7-77.2 9.9 0 14.8 1.3 22.2 5.5l9.5 5.7 135-77.8c74.1-42.7 134.3-78.3 133.5-79-0.9-0.6-111-40.7-245.1-88.9-133.9-48.1-245-88-246.2-88.4zm548 147.8c-1 0.3-25.2 30.2-28.1 35.5-1.7 2.7-1.1 2.7 3.1 0.6 15.1-8.1 33.5-19.9 33.5-21.6 0-1.1-1.7-4.9-3.6-8.3-2.1-3.4-4.2-6.2-4.9-6.2zm-172.6 121.4l-139.8 81.3v15.9c0 12.5-1.1 17.8-4.9 25-2.8 5.5-3.6 8.5-1.9 7.4 1.7-0.8 72.4-47.1 157.2-102.4l154.4-100.6-7-3c-16.1-6.3-9.9-9.5-158 76.4z"/></svg>